<?xml version="1.0" standalone="no"?>
<!DOCTYPE svg PUBLIC "-//W3C//DTD SVG 20010904//EN"
 "http://www.w3.org/TR/2001/REC-SVG-20010904/DTD/svg10.dtd">
<svg version="1.0" xmlns="http://www.w3.org/2000/svg"
 width="220.000000pt" height="220.000000pt" viewBox="0 0 220.000000 220.000000"
 preserveAspectRatio="xMidYMid meet">
<metadata>
Created by potrace 1.11, written by Peter Selinger 2001-2013
</metadata>
<g transform="translate(0.000000,220.000000) scale(0.100000,-0.100000)"
fill="#000000" stroke="none">
<path d="M1269 2053 c-1 -16 -2 -36 -2 -45 0 -14 -3 -15 -19 -7 -20 11 -19 36
1 32 18 -5 13 14 -6 21 -10 4 -14 4 -10 0 4 -4 2 -13 -3 -19 -12 -15 -3 -45
14 -45 8 0 8 -2 -1 -8 -6 -4 -13 -16 -15 -27 -1 -11 -7 -24 -13 -28 -6 -5 -4
-7 5 -6 8 1 23 -1 32 -5 16 -7 16 -9 -2 -25 -25 -20 -34 -58 -14 -58 17 0 18
14 2 20 -7 3 -3 4 9 4 17 -1 20 -5 12 -18 -12 -24 -11 -32 3 -23 7 4 8 3 4 -5
-6 -9 -11 -9 -21 -1 -9 7 -16 6 -26 -7 -13 -16 -12 -17 4 -4 14 11 17 11 17
-2 0 -15 -38 -16 -140 0 -156 23 -169 23 -179 5 -14 -26 -14 -34 1 -43 9 -6 7
-8 -8 -7 -11 1 -21 8 -21 15 0 6 3 10 7 8 3 -2 7 6 7 18 2 20 1 20 -8 4 -6 -9
-16 -14 -22 -11 -7 4 -9 4 -5 -1 4 -4 3 -14 -4 -22 -6 -7 -8 -16 -4 -20 3 -3
6 -1 6 6 0 7 5 9 10 6 8 -5 7 -11 0 -20 -7 -8 -9 -18 -6 -24 3 -5 3 -11 -1
-14 -5 -2 -2 -2 5 -1 6 2 12 -1 12 -6 0 -6 -5 -10 -11 -10 -8 0 -8 -4 0 -13 8
-10 7 -17 -1 -25 -7 -7 -8 -12 -3 -12 6 0 3 -5 -5 -11 -13 -9 -13 -10 0 -6 8
2 14 10 12 16 -1 7 1 10 5 8 5 -3 9 8 10 25 0 16 5 34 10 39 10 10 10 -31 -1
-49 -4 -7 -4 -12 0 -12 3 0 2 -6 -4 -13 -6 -7 -9 -27 -7 -45 2 -18 -1 -32 -6
-32 -6 0 -8 4 -5 9 3 5 -2 15 -12 22 -15 12 -16 12 -6 -1 6 -8 10 -23 9 -32
-2 -11 2 -15 13 -11 14 4 15 3 2 -5 -8 -6 -18 -9 -22 -6 -4 3 -16 0 -27 -6
-11 -5 -22 -6 -25 -2 -4 7 -51 9 -51 2 0 -1 -17 -2 -37 -4 -21 -2 -38 0 -38 4
0 3 -15 5 -32 3 -18 -2 -39 -4 -45 -3 -7 0 -21 0 -30 0 -10 0 -35 -1 -56 -1
-30 0 -37 -4 -37 -20 0 -22 -10 -24 -30 -6 -11 9 -11 8 0 -7 14 -18 13 -19 -2
-13 -13 4 -15 2 -11 -10 4 -11 2 -14 -5 -9 -8 5 -10 2 -5 -9 3 -9 9 -13 12 -8
17 23 39 34 47 22 4 -7 3 -9 -3 -6 -15 9 -54 -49 -46 -69 4 -10 2 -15 -4 -11
-5 3 -10 0 -10 -8 0 -13 4 -12 19 2 20 18 25 4 6 -16 -11 -11 -9 -12 11 -6 21
6 22 5 10 -8 -8 -8 -19 -13 -25 -10 -7 2 -15 0 -19 -6 -4 -7 1 -8 12 -4 16 6
16 4 -2 -17 -11 -13 -14 -20 -7 -16 15 9 16 -6 0 -22 -8 -8 -8 -12 -1 -12 6 0
16 14 23 30 7 17 16 30 21 30 5 0 4 -9 -3 -20 -11 -17 -10 -22 2 -31 13 -9 12
-10 -2 -5 -10 3 -18 1 -18 -4 0 -5 -8 -17 -18 -26 -16 -17 -16 -18 0 -11 10 3
18 2 18 -4 0 -5 10 -14 23 -20 l22 -10 -23 5 c-16 3 -22 1 -19 -8 3 -8 -6 -12
-29 -11 -19 1 -34 -2 -34 -7 0 -5 -8 -4 -18 1 -11 6 -24 6 -35 0 -9 -6 -17 -6
-17 -2 0 4 -11 8 -25 8 -14 0 -25 -3 -25 -7 0 -4 -13 -3 -30 2 -16 5 -30 5
-30 0 0 -4 -21 -6 -46 -3 -27 2 -43 0 -40 -6 5 -8 -20 -25 -34 -24 -3 1 -11
-5 -18 -13 -17 -18 -2 -18 24 0 17 13 21 13 21 1 0 -8 -4 -12 -8 -10 -12 8
-30 -22 -22 -40 4 -12 3 -16 -4 -12 -6 4 -17 -1 -24 -11 -13 -16 -13 -16 5 -2
18 14 18 13 12 -10 -6 -24 -6 -24 9 3 19 33 25 35 17 5 -3 -13 -1 -19 6 -15
15 10 9 -16 -11 -47 -10 -15 -22 -24 -27 -21 -4 3 -3 -6 3 -19 10 -20 13 -21
22 -9 10 13 13 12 26 -4 13 -17 13 -17 -5 -3 -18 14 -19 13 -13 -3 5 -12 3
-16 -5 -11 -8 5 -9 2 -5 -10 4 -10 7 -20 7 -22 0 -3 4 -3 8 0 5 3 9 -1 9 -9 0
-12 -3 -12 -16 -2 -12 10 -14 9 -7 -7 7 -20 7 -20 -16 0 -22 18 -22 18 -8 0
11 -15 12 -20 3 -23 -10 -3 -9 -9 3 -21 15 -15 15 -16 -2 -22 -17 -6 -17 -7 1
-13 17 -7 17 -8 -1 -29 -11 -12 -13 -18 -6 -14 6 4 12 3 12 -3 0 -5 -6 -12
-12 -14 -8 -3 -8 -6 -2 -6 6 -1 19 8 29 19 10 11 13 20 7 20 -5 0 -9 12 -7 28
2 15 -2 33 -7 40 -7 8 -7 12 1 12 6 0 11 -5 11 -11 0 -5 4 -8 8 -5 4 2 8 -4 8
-14 0 -10 -4 -16 -8 -14 -14 9 -9 -10 9 -35 9 -14 11 -21 5 -17 -14 8 -46 -39
-37 -54 3 -5 -1 -13 -10 -16 -13 -6 -14 -8 -3 -15 11 -7 10 -11 -2 -19 -8 -5
-10 -10 -5 -10 13 0 37 16 36 24 -3 17 0 26 7 26 4 0 8 -11 8 -24 0 -14 -3
-23 -7 -21 -3 3 -15 -5 -25 -17 -11 -12 -13 -18 -6 -14 6 4 12 3 12 -1 0 -5
-6 -15 -12 -22 -10 -11 -10 -13 0 -7 13 8 17 -6 5 -18 -4 -4 -6 -23 -4 -43 2
-21 -1 -33 -7 -29 -6 3 -5 -5 1 -18 8 -16 14 -21 19 -13 12 18 9 29 -4 20 -7
-4 -5 5 4 19 10 16 13 28 7 30 -12 4 -1 38 13 38 7 0 6 -5 -1 -13 -7 -10 -7
-17 0 -24 8 -8 8 -13 0 -17 -6 -4 -11 -12 -11 -17 0 -6 5 -7 11 -3 8 4 8 0 0
-15 -7 -12 -9 -27 -5 -33 5 -7 3 -8 -6 -3 -10 6 -12 4 -7 -9 4 -10 7 -20 7
-22 0 -3 4 -3 8 0 5 3 9 -1 9 -9 0 -11 -4 -12 -14 -4 -10 9 -13 8 -13 -1 0 -9
-4 -9 -17 1 -17 13 -17 12 -4 -4 13 -16 13 -20 0 -28 -8 -5 -9 -9 -3 -9 7 0
15 -7 18 -16 4 -11 2 -15 -7 -11 -8 3 -14 0 -14 -7 0 -18 25 -16 32 2 3 8 0
21 -6 28 -9 11 -9 14 0 14 7 0 9 5 5 12 -4 7 -3 8 4 4 6 -4 8 -14 5 -23 -4 -9
-2 -14 3 -10 5 3 10 -3 10 -13 0 -10 -3 -17 -7 -14 -10 6 -19 -24 -13 -41 4
-8 11 -12 17 -8 6 3 7 1 3 -6 -4 -6 -13 -8 -19 -4 -20 13 -34 11 -34 -3 0 -7
5 -10 10 -7 7 4 8 -1 3 -12 -5 -15 -4 -16 9 -5 8 7 15 8 15 2 0 -5 -10 -17
-23 -26 -19 -14 -20 -15 -2 -9 11 3 26 10 33 16 8 6 12 6 12 -1 0 -6 -9 -14
-21 -17 -14 -5 -18 -10 -11 -17 6 -6 8 -16 6 -23 -3 -7 2 -15 11 -19 11 -4 14
-2 8 7 -12 20 -12 36 0 44 7 3 9 3 5 -2 -12 -13 12 -48 25 -37 7 5 21 8 32 6
20 -3 20 -3 1 12 -11 8 -15 14 -9 14 7 0 14 -4 17 -9 3 -5 17 -8 31 -8 13 0
23 3 20 7 -5 8 27 6 42 -3 6 -4 15 -2 19 4 5 8 3 9 -6 4 -8 -5 -11 -4 -6 3 8
13 36 5 37 -12 0 -6 4 -2 9 9 5 11 9 14 9 8 1 -7 6 -13 12 -13 5 0 7 5 3 12
-5 8 -2 9 11 5 9 -4 25 -2 33 5 14 11 15 10 8 -6 -7 -19 -6 -19 14 -1 11 10
20 13 20 7 0 -7 5 -12 11 -12 5 0 7 5 4 10 -3 6 3 10 14 10 29 0 37 -3 33 -14
-2 -5 4 -4 12 4 19 15 21 24 4 14 -7 -4 -8 -3 -4 5 5 8 12 9 20 2 7 -6 17 -6
26 -1 20 13 33 12 25 0 -3 -6 -1 -10 4 -10 6 0 11 6 11 13 0 14 57 16 79 2 9
-5 12 -4 8 2 -4 6 0 14 9 17 23 9 26 8 18 -7 -6 -9 -4 -9 8 1 12 10 17 10 20
1 3 -8 8 -8 18 2 18 18 46 18 42 0 -1 -7 2 -10 7 -6 6 3 7 13 4 23 -6 14 -4
15 8 5 12 -10 18 -10 29 0 10 9 11 9 6 0 -4 -8 2 -7 21 2 31 16 57 20 33 5
-12 -7 -10 -9 7 -7 12 0 19 5 17 9 -3 4 5 8 18 9 13 0 40 2 61 5 28 3 36 0 32
-9 -4 -6 1 -3 9 7 9 12 16 14 16 7 0 -9 5 -8 16 3 20 21 28 20 20 -1 -6 -14
-3 -14 15 3 14 11 19 13 14 4 -8 -13 -7 -13 9 -1 18 15 59 23 51 10 -3 -4 2
-9 9 -12 10 -4 13 0 11 14 -5 23 -1 24 19 3 15 -14 16 -14 16 1 0 11 5 15 15
11 20 -7 40 30 26 48 -6 7 -8 15 -6 18 10 9 11 118 2 118 -4 0 -5 5 -1 11 4 7
8 30 9 53 3 65 4 66 28 62 12 -2 28 2 36 8 11 8 13 8 8 -1 -8 -13 18 -12 30 2
4 4 2 5 -6 0 -10 -6 -12 -4 -7 4 6 9 11 9 22 0 9 -7 14 -8 14 -1 0 12 18 11
39 -2 9 -6 12 -5 7 2 -3 6 -2 13 4 17 5 3 10 0 10 -7 0 -9 3 -9 10 2 8 13 10
12 10 -2 0 -10 4 -18 10 -18 5 0 6 8 3 18 -6 15 -5 16 12 2 11 -9 16 -10 11
-2 -5 8 1 12 21 12 16 0 35 6 41 12 10 10 15 10 22 -2 7 -11 10 -11 10 -2 0 7
5 10 10 7 12 -8 11 -20 12 157 l2 146 24 -4 c13 -3 21 -1 18 4 -3 5 1 9 9 9
18 0 19 -9 3 -27 -7 -8 -2 -6 11 5 13 11 31 19 41 17 24 -4 28 13 29 137 0 57
2 105 4 108 3 2 18 8 36 13 30 8 30 8 20 -13 -12 -22 -12 -22 9 -4 15 14 27
17 44 11 13 -4 25 -8 28 -9 3 0 12 -4 20 -9 12 -7 13 -6 3 5 -17 17 -17 37 -1
21 14 -14 32 -16 23 -3 -3 5 0 13 7 17 7 4 10 3 5 -1 -8 -10 21 -45 37 -45 6
0 3 5 -6 11 -10 5 -18 15 -18 21 0 7 5 7 14 -1 20 -17 56 -22 50 -8 -3 8 8 12
33 12 l38 0 3 364 c1 201 -1 361 -5 358 -3 -4 -12 -2 -20 4 -7 6 -13 9 -13 7
0 -3 -24 -1 -52 4 -55 10 -101 15 -178 23 -25 2 -45 4 -45 5 0 3 -51 12 -75
13 -14 1 -28 6 -32 12 -5 6 -8 5 -8 -3 0 -7 -4 -11 -9 -8 -9 6 -65 16 -116 21
-16 2 -43 6 -60 10 -16 3 -52 8 -80 10 -27 2 -57 6 -65 9 -32 12 -76 13 -89 2
-11 -8 -13 -8 -7 2 4 7 1 12 -8 12 -10 0 -16 -10 -17 -27z m-8 -87 c-9 -11 -9
-15 1 -18 8 -3 6 -6 -5 -11 -23 -9 -30 8 -11 27 19 20 31 21 15 2z m340 -39
c-10 -9 -11 -8 -5 6 3 10 9 15 12 12 3 -3 0 -11 -7 -18z m-336 -47 c-3 -5 -12
-10 -18 -10 -7 0 -6 4 3 10 19 12 23 12 15 0z m-360 -162 c-19 -11 -30 -5 -21
11 4 6 14 7 22 4 15 -5 14 -7 -1 -15z m1160 2 c3 -5 1 -10 -4 -10 -6 0 -11 5
-11 10 0 6 2 10 4 10 3 0 8 -4 11 -10z m-218 -85 c0 -8 -4 -12 -9 -9 -5 3 -6
10 -3 15 9 13 12 11 12 -6z m-923 -61 c3 -8 2 -12 -4 -9 -6 3 -10 10 -10 16 0
14 7 11 14 -7z m-437 -169 c0 -8 -4 -15 -9 -15 -4 0 -8 7 -8 15 0 8 4 15 8 15
5 0 9 -7 9 -15z m1583 -1 c0 -8 -19 -13 -24 -6 -3 5 1 9 9 9 8 0 15 -2 15 -3z
m-1585 -173 c3 -5 0 -13 -6 -17 -7 -4 -9 -3 -5 4 3 5 0 13 -6 15 -9 4 -10 6
-1 6 6 1 14 -3 18 -8z m-355 -149 c0 -5 -7 -9 -15 -9 -8 0 -12 4 -9 9 3 4 9 8
15 8 5 0 9 -4 9 -8z m0 -126 c0 -2 -9 -6 -20 -9 -11 -3 -18 -1 -14 4 5 9 34
13 34 5z m-4 -253 c-2 -9 -9 -19 -17 -21 -11 -3 -11 -1 1 7 8 6 11 11 7 11 -5
0 -5 5 -2 10 9 15 14 12 11 -7z m-1 -103 c3 -5 1 -10 -4 -10 -6 0 -11 5 -11
10 0 6 2 10 4 10 3 0 8 -4 11 -10z m5 -26 c0 -8 -19 -13 -24 -6 -3 5 1 9 9 9
8 0 15 -2 15 -3z m13 -129 c-3 -9 -8 -14 -10 -11 -3 3 -2 9 2 15 9 16 15 13 8
-4z m-3 -159 c0 -3 -4 -8 -10 -11 -5 -3 -10 -1 -10 4 0 6 5 11 10 11 6 0 10
-2 10 -4z"/>
<path d="M1240 2020 c0 -5 5 -10 11 -10 5 0 7 5 4 10 -3 6 -8 10 -11 10 -2 0
-4 -4 -4 -10z"/>
<path d="M1215 1900 c-8 -13 5 -13 25 0 13 8 13 10 -2 10 -9 0 -20 -4 -23 -10z"/>
<path d="M100 1011 c0 -5 -7 -17 -16 -25 -8 -9 -11 -16 -6 -16 16 0 44 38 33
45 -6 3 -11 2 -11 -4z"/>
<path d="M82 886 c7 -8 15 -12 17 -11 5 6 -10 25 -20 25 -5 0 -4 -6 3 -14z"/>
<path d="M82 406 c7 -8 15 -12 17 -11 5 6 -10 25 -20 25 -5 0 -4 -6 3 -14z"/>
<path d="M75 150 c3 -5 8 -10 11 -10 2 0 4 5 4 10 0 6 -5 10 -11 10 -5 0 -7
-4 -4 -10z"/>
<path d="M216 142 c-3 -5 1 -9 9 -9 8 0 12 4 9 9 -3 4 -7 8 -9 8 -2 0 -6 -4
-9 -8z"/>
</g>
</svg>
